<?xml version="1.0" standalone="no"?>
<!DOCTYPE svg PUBLIC "-//W3C//DTD SVG 20010904//EN"
 "http://www.w3.org/TR/2001/REC-SVG-20010904/DTD/svg10.dtd">
<svg version="1.0" xmlns="http://www.w3.org/2000/svg"
 width="648.000000pt" height="628.000000pt" viewBox="0 0 648.000000 628.000000"
 preserveAspectRatio="xMidYMid meet">

<g transform="translate(0.000000,628.000000) scale(0.100000,-0.100000)"
fill="#000000" stroke="none">
<path d="M1240 5992 c-19 -9 -36 -20 -38 -24 -2 -5 -9 -8 -15 -8 -23 0 -92
-43 -129 -79 -20 -20 -42 -41 -50 -48 -7 -6 -40 -39 -72 -72 -32 -34 -63 -61
-67 -61 -5 0 -9 -6 -9 -14 0 -7 -6 -19 -14 -25 -8 -7 -27 -38 -42 -69 -31 -63
-30 -61 -77 -117 -67 -79 -166 -204 -177 -224 -6 -11 -34 -48 -63 -82 -64 -76
-74 -92 -131 -204 -25 -49 -55 -106 -65 -125 -19 -34 -43 -87 -72 -160 -14
-36 -85 -171 -119 -225 -10 -16 -19 -39 -19 -49 -1 -11 -13 -35 -28 -55 -16
-20 -34 -46 -40 -60 -10 -18 -13 -469 -13 -2157 l0 -2134 2635 0 2635 0 0 22
c0 25 -39 148 -52 163 -4 5 -8 18 -8 29 0 10 -7 44 -16 75 -8 31 -22 81 -31
111 -56 198 -99 311 -143 370 -32 43 -58 87 -75 130 -27 68 -191 318 -228 347
-12 10 -28 32 -34 48 -6 17 -23 60 -37 97 -16 41 -26 87 -26 120 -1 51 -16 88
-37 88 -5 0 -15 10 -22 23 -6 12 -20 36 -30 52 -11 17 -20 44 -20 60 -1 23
-13 40 -47 70 -60 52 -83 75 -119 121 -16 21 -42 49 -56 63 -15 15 -30 41 -34
59 -5 25 -19 40 -61 67 -30 19 -59 45 -65 58 -9 20 -53 47 -226 141 -31 16
-60 41 -69 57 -14 28 -14 30 25 71 54 55 92 170 97 288 l3 85 61 70 60 70 0
66 c0 40 -6 78 -15 95 -21 41 -19 81 5 94 11 6 20 21 20 34 0 13 15 43 33 67
18 24 45 63 61 87 16 23 33 42 39 42 14 0 2 138 -14 172 -8 16 -17 28 -21 28
-5 0 -8 6 -8 14 0 8 -16 28 -35 45 -19 17 -35 36 -35 43 0 7 -7 27 -16 43 -9
17 -26 48 -38 70 -27 51 -56 92 -56 80 -1 -6 -11 3 -24 19 l-24 29 34 47 c19
26 34 52 34 59 0 6 3 11 8 11 15 0 62 48 62 64 0 9 4 16 10 16 12 0 11 288 -1
296 -5 3 -9 47 -9 99 0 89 1 94 23 97 18 2 23 10 25 41 3 32 -1 41 -30 65 -18
15 -54 46 -79 69 -25 24 -53 43 -63 43 -9 0 -25 9 -35 19 -11 11 -27 21 -38
23 -10 2 -19 13 -21 24 -2 12 -19 36 -38 54 -18 19 -34 39 -34 46 0 7 -18 28
-40 47 -22 19 -40 38 -40 43 0 11 -65 64 -78 64 -20 0 -147 119 -137 128 3 3
-2 16 -10 29 -9 13 -13 27 -10 32 2 5 -2 12 -11 15 -8 3 -14 14 -12 23 5 19
-44 127 -61 138 -6 3 -8 12 -4 20 3 8 1 15 -4 15 -5 0 -17 15 -28 33 -38 65
-199 247 -219 247 -6 0 -22 9 -36 20 -14 11 -34 20 -46 20 -11 0 -41 14 -67
30 -26 17 -57 30 -67 30 -11 0 -20 5 -20 10 0 6 -75 10 -205 10 -113 0 -205
-4 -205 -8 0 -4 -15 -14 -34 -20 -25 -9 -40 -24 -55 -57 -12 -25 -27 -45 -35
-45 -7 0 -48 -18 -91 -40 -87 -45 -85 -44 -85 -30 0 25 -69 99 -120 130 -115
68 -128 70 -484 69 -280 0 -326 -2 -356 -17z m2860 -1282 c0 -5 -4 -10 -10
-10 -5 0 -10 5 -10 10 0 6 5 10 10 10 6 0 10 -4 10 -10z m-1494 -177 c43 -15
55 -24 65 -50 7 -18 16 -33 19 -33 4 0 11 -21 18 -48 6 -26 26 -81 45 -122 54
-114 54 -114 -23 -121 -35 -4 -66 -12 -68 -18 -2 -6 -20 -18 -39 -26 -42 -18
-228 -20 -285 -4 -32 8 -38 14 -38 38 0 15 8 43 17 62 23 46 32 254 12 272 -8
7 -25 24 -38 40 l-24 27 143 0 c110 0 156 -4 196 -17z m-669 1 c-3 -3 -12 -4
-19 -1 -8 3 -5 6 6 6 11 1 17 -2 13 -5z m-173 -18 c-3 -8 -18 -19 -34 -24 -32
-11 -66 -86 -57 -123 6 -21 5 -21 -21 2 -15 13 -29 27 -32 31 -10 13 -121 58
-143 58 -13 0 -27 4 -32 9 -6 5 -27 14 -48 21 -21 7 -36 14 -34 16 11 11 136
22 264 23 120 1 141 -1 137 -13z m1518 -3 c-29 -14 -63 -53 -46 -53 3 0 1 -6
-5 -13 -6 -8 -8 -17 -4 -21 4 -3 -7 -19 -24 -35 -18 -16 -29 -31 -26 -34 3 -3
2 -11 -2 -18 -5 -6 -7 -47 -6 -89 1 -47 -2 -81 -8 -85 -11 -6 -77 12 -94 26
-5 3 1 22 12 40 12 19 21 51 21 73 0 30 9 48 40 86 22 26 40 51 40 55 0 5 18
25 39 47 27 26 48 38 68 38 l28 0 -33 -17z m486 -1 c4 -14 46 -33 122 -57 30
-9 69 -25 86 -36 17 -10 39 -19 49 -19 14 0 16 -6 10 -42 -4 -23 -12 -48 -19
-55 -37 -46 -67 -73 -81 -73 -8 0 -15 -8 -15 -19 0 -11 -13 -25 -32 -34 -32
-15 -162 -37 -216 -37 l-27 0 27 23 c40 34 48 58 48 154 0 108 -24 167 -80
196 l-35 18 79 -3 c51 -2 81 -8 84 -16z m-1860 -40 c5 -32 -16 -54 -47 -50
-18 2 -27 10 -29 26 -6 40 5 54 40 50 26 -2 34 -8 36 -26z m2152 -17 c0 -8 5
-15 10 -15 6 0 10 -5 10 -10 0 -6 -11 -3 -25 6 -14 9 -22 20 -19 25 8 14 24
10 24 -6z m-688 0 c3 -3 2 -20 -1 -38 -11 -55 -70 -46 -65 10 1 16 2 29 3 31
2 4 58 2 63 -3z m-1062 -25 c0 -11 -2 -20 -4 -20 -2 0 -6 9 -9 20 -3 11 -1 20
4 20 5 0 9 -9 9 -20z m-102 -12 c24 -24 14 -64 -23 -97 -39 -34 -84 -41 -104
-17 -7 8 -11 36 -9 63 3 48 3 48 43 54 66 10 80 10 93 -3z m1442 -69 c0 -70
-12 -89 -58 -89 -47 0 -62 14 -62 60 0 57 22 76 93 79 26 1 27 -1 27 -50z
m-1730 -34 c0 -21 -5 -25 -30 -25 -25 0 -30 4 -30 25 0 21 5 25 30 25 25 0 30
-4 30 -25z m1452 -61 c-6 -33 -46 -31 -48 4 -1 18 4 22 26 22 24 0 27 -3 22
-26z m-132 -407 c98 -32 97 -31 105 -113 4 -40 4 -112 0 -161 -3 -48 -8 -140
-11 -203 -12 -255 -15 -297 -24 -338 -6 -24 -8 -47 -6 -51 5 -8 -18 -178 -33
-246 -28 -121 -46 -179 -92 -294 -47 -115 -55 -129 -101 -166 -53 -43 -100
-75 -108 -75 -9 0 -31 90 -25 101 3 5 0 6 -8 4 -18 -8 -98 162 -134 285 -15
52 -32 98 -37 101 -5 4 -6 16 -3 28 3 12 1 24 -4 27 -5 3 -7 20 -3 39 3 19 1
35 -5 39 -6 4 -8 18 -5 33 5 19 4 24 -5 19 -9 -6 -10 5 -6 41 3 35 2 42 -5 28
-6 -14 -8 -4 -3 32 3 29 1 59 -4 65 -15 20 -24 50 -13 43 6 -4 10 9 9 32 -1
38 -1 38 -9 8 -5 -17 -6 5 -3 53 4 60 3 82 -6 82 -7 0 -11 8 -10 18 3 18 -8
104 -18 136 -3 11 -1 16 5 12 6 -3 14 -2 17 4 4 6 1 9 -6 8 -7 -2 -13 9 -14
24 -1 15 2 25 7 22 12 -8 10 10 -3 23 -15 15 -23 173 -12 243 8 52 10 56 53
77 25 12 74 27 110 32 94 14 355 6 410 -12z m-523 -829 c-3 -8 -6 -5 -6 6 -1
11 2 17 5 13 3 -3 4 -12 1 -19z m953 -949 c0 -31 -26 -85 -48 -100 -11 -8 -22
-25 -24 -39 -2 -18 -18 -31 -61 -52 -32 -16 -67 -38 -77 -48 -11 -11 -29 -20
-40 -20 -11 0 -24 -8 -27 -17 -4 -9 -24 -34 -44 -54 -21 -21 -41 -50 -45 -64
-3 -14 -10 -25 -16 -25 -22 0 6 -20 42 -30 42 -11 100 -54 100 -74 0 -7 -11
-18 -24 -25 -13 -7 -29 -24 -35 -38 -7 -16 -17 -23 -26 -19 -8 3 -14 0 -12 -6
2 -13 -34 -26 -78 -27 -23 0 -26 2 -15 9 12 8 11 10 -7 10 -14 0 -23 -6 -23
-15 0 -11 -11 -15 -41 -15 -24 0 -38 4 -34 10 3 6 2 10 -4 10 -5 0 -14 -8 -20
-17 -11 -20 -59 -21 -221 -7 -61 5 -78 9 -60 15 24 7 24 7 3 8 -13 1 -23 5
-23 10 0 5 -10 7 -22 3 -21 -5 -21 -6 -2 -13 16 -6 14 -8 -9 -8 -16 -1 -26 3
-23 7 2 4 -5 14 -17 22 -21 12 -21 12 -7 -5 14 -17 14 -18 -8 -6 -13 7 -20 17
-16 23 5 7 2 9 -9 5 -10 -4 -16 -2 -14 6 1 7 -4 11 -10 10 -7 -2 -13 2 -13 8
0 6 -9 9 -20 6 -27 -7 -36 27 -16 58 16 25 85 54 176 75 30 7 67 17 83 22 30
11 94 101 89 125 -2 9 1 12 7 8 7 -4 11 16 11 60 l0 66 33 -3 c32 -3 32 -3 37
-66 3 -35 1 -66 -4 -69 -5 -4 -3 -11 5 -17 8 -6 27 -28 43 -48 26 -35 90 -68
103 -54 4 3 -1 6 -10 6 -9 0 -18 4 -21 9 -9 14 4 41 20 41 8 0 14 6 14 13 0 6
30 26 66 42 69 31 158 101 148 116 -3 5 -1 9 5 9 16 0 83 69 136 141 47 63 51
66 77 57 18 -6 28 -17 28 -29z m-798 -732 c1 -15 8 -27 15 -27 7 0 16 -18 20
-42 3 -24 8 -37 11 -30 11 35 82 -18 82 -62 0 -29 50 -87 95 -109 17 -8 61
-36 100 -61 38 -25 74 -46 80 -46 6 0 35 -16 65 -36 30 -20 73 -47 96 -60 60
-35 197 -177 212 -220 7 -20 21 -49 32 -64 11 -16 20 -39 20 -53 0 -13 6 -37
14 -53 7 -16 16 -44 20 -62 8 -45 -10 -26 -49 52 -16 32 -36 60 -45 63 -36 12
-83 39 -88 52 -9 23 -165 163 -277 250 -16 12 -51 43 -77 67 -26 24 -50 44
-55 44 -11 0 -104 64 -171 118 -30 23 -58 42 -64 42 -6 0 -8 6 -5 13 7 19 -33
64 -63 72 -24 6 -24 5 -6 -9 10 -8 24 -17 30 -19 6 -2 8 -8 3 -12 -9 -10 -58
34 -51 46 2 4 -7 16 -20 25 -27 17 -30 44 -8 66 7 7 12 16 12 20 0 9 63 68 67
64 2 -1 4 -15 5 -29z"/>
<path d="M2835 3840 c-67 -8 -115 -25 -115 -39 0 -5 43 -20 96 -32 81 -19 115
-21 227 -17 123 5 257 30 257 47 0 4 -26 16 -57 26 -64 21 -296 30 -408 15z"/>
<path d="M2699 3780 c0 -3 -3 -14 -6 -25 -11 -44 -15 -177 -5 -187 7 -7 9 2 5
31 -3 24 -2 41 4 41 6 0 8 -11 5 -25 -9 -49 11 -56 86 -29 62 22 78 24 212 20
92 -3 167 -11 205 -22 117 -32 105 -41 105 80 l0 107 -37 -7 c-21 -4 -49 -11
-63 -17 -51 -20 -264 -21 -382 -2 -62 10 -116 23 -120 29 -4 6 -8 9 -9 6z"/>
<path d="M2700 3391 c0 -6 4 -13 10 -16 6 -3 7 1 4 9 -7 18 -14 21 -14 7z"/>
<path d="M3305 3330 c-3 -5 -1 -10 4 -10 6 0 11 5 11 10 0 6 -2 10 -4 10 -3 0
-8 -4 -11 -10z"/>
<path d="M2957 1605 c-4 -8 -2 -15 3 -15 6 0 10 6 10 13 0 8 4 7 11 -3 9 -12
10 -12 7 -1 -6 21 -24 25 -31 6z"/>
<path d="M2880 1600 c0 -5 10 -10 23 -10 18 0 19 2 7 10 -19 13 -30 13 -30 0z"/>
<path d="M3095 1600 c-4 -6 3 -10 14 -10 25 0 27 6 6 13 -8 4 -17 2 -20 -3z"/>
<path d="M2862 1434 c8 -7 68 -12 63 -4 -2 4 -18 7 -36 8 -17 0 -29 -1 -27 -4z"/>
<path d="M3060 1430 c-8 -5 -10 -10 -5 -10 6 0 17 5 25 10 8 5 11 10 5 10 -5
0 -17 -5 -25 -10z"/>
<path d="M2988 1423 c7 -3 16 -2 19 1 4 3 -2 6 -13 5 -11 0 -14 -3 -6 -6z"/>
<path d="M3450 736 c0 -2 8 -10 18 -17 15 -13 16 -12 3 4 -13 16 -21 21 -21
13z"/>
</g>
</svg>
